#!OML:ASF E:\emotionWalksFemale\Project 1\Capture day 1\Session 1\Female1.ASF
:FULLY-SPECIFIED
:DEGREES
292
root 7.37651 14.9297 40.0791 172.883 -14.0432 174.339
lowerback 2.85993 2.96219 -1.91242
upperback -2.91567 3.55032 -3.46008
thorax -4.51572 1.69289 -2.74243
lowerneck 3.21712 -5.43574 -13.2985
upperneck 23.3223 -11.5885 9.19365
head 7.92242 -6.94438 4.43588
rclavicle 3.68746e-014 2.14687e-014
rhumerus -50.3386 12.4193 -95.9554
rradius 30.141
rwrist 16.8785
rhand -4.79059 -49.213
rfingers 7.12502
rthumb 20.9946 -78.0966
lclavicle 3.68746e-014 2.14687e-014
lhumerus -49.7579 0.132858 82.5686
lradius 33.2963
lwrist -23.3584
lhand -11.1338 -38.3237
lfingers 7.12502
lthumb 14.8916 -8.87891
rfemur -25.9779 24.3828 7.95205
rtibia 32.7901
rfoot -32.2324 -37.8326
rtoes 28.2519
lfemur 23.7777 -13.0666 -40.5369
ltibia -2.70347e-014
lfoot -15.9101 8.88033
ltoes -26.4397
293
root 7.37954 14.9334 40.0309 172.876 -14.3183 174.21
lowerback 2.81973 2.99078 -2.1652
upperback -2.87525 3.56997 -3.52456
thorax -4.46261 1.7071 -2.66571
lowerneck 3.36871 -5.48822 -13.3817
upperneck 23.3442 -11.7441 9.36394
head 7.93721 -7.02605 4.49964
rclavicle -2.5345e-014 8.74653e-015
rhumerus -50.2654 12.2899 -95.8938
rradius 29.8
rwrist 17.6011
rhand -5.18568 -49.0524
rfingers 7.12502
rthumb 20.615 -77.9777
lclavicle -2.5345e-014 8.74653e-015
lhumerus -49.4488 0.889697 81.8714
lradius 32.6066
lwrist -24.7386
lhand -12.7931 -40.0954
lfingers 7.12502
lthumb 13.2927 -10.5393
rfemur -25.9228 25.2009 7.48341
rtibia 32.3519
rfoot -37.0905 -35.9743
rtoes 37.6163
lfemur 24.0261 -13.0131 -40.6051
ltibia 3.81667e-014
lfoot -15.6837 8.50715
ltoes -26.3139
294
root 7.38195 14.9331 39.9888 172.687 -14.5215 173.858
lowerback 3.16254 3.10393 -2.54496
upperback -2.74172 3.67394 -3.68614
thorax -4.5306 1.76299 -2.64444
lowerneck 2.95524 -5.65462 -13.5264
upperneck 23.5703 -12.0476 9.78675
head 8.15872 -7.14153 4.6209
rclavicle -3.39922e-014 2.78299e-014
rhumerus -50.0893 12.1314 -95.9032
rradius 29.3415
rwrist 18.7497
rhand -6.13411 -49.0487
rfingers 7.12502
rthumb 19.7034 -78.0702
lclavicle -3.39922e-014 2.78299e-014
lhumerus -48.7985 1.83297 80.9539
lradius 31.5935
lwrist -26.7648
lhand -14.4766 -41.7671
lfingers 7.12502
lthumb 11.6695 -12.1121
rfemur -25.1822 25.2582 7.09395
rtibia 31.0565
rfoot -36.1113 -38.0065
rtoes 34.7619
lfemur 24.4661 -12.7814 -40.9237
ltibia 5.40694e-014
lfoot -15.5055 7.90469
ltoes -23.639
295
root 7.40021 14.9578 39.9539 172.973 -14.8545 175.312
lowerback 2.76352 2.96716 -1.5284
upperback -3.12452 3.59139 -3.27186
thorax -4.66431 1.70774 -2.76724
lowerneck 3.40237 -5.56608 -13.9109
upperneck 23.6406 -12.1449 10.1966
head 8.16281 -7.23476 4.83491
rclavicle 2.40529e-014 2.38542e-015
rhumerus -50.166 11.9458 -95.6322
rradius 29.4184
rwrist 17.6872
rhand -5.00824 -49.6423
rfingers 7.12502
rthumb 20.7855 -78.549
lclavicle 2.40529e-014 2.38542e-015
lhumerus -49.2778 1.28122 81.2773
lradius 31.9757
lwrist -26.3358
lhand -15.4028 -41.994
lfingers 7.12502
lthumb 10.7762 -12.2905
rfemur -25.3116 26.234 8.04803
rtibia 29.6054
rfoot -37.2442 -40.0652
rtoes 35.2221
lfemur 20.1656 -13.2562 -39.1634
ltibia 7.64609
lfoot -19.0844 7.56253
ltoes -21.199
296
root 7.44104 15.0018 39.9691 173.747 -14.8171 178.992
lowerback 2.19948 2.81944 1.52331
upperback -3.94216 3.61807 -2.27145
thorax -5.06873 1.63536 -3.43465
lowerneck 3.82368 -5.53046 -14.0788
upperneck 23.5035 -12.1938 10.3586
head 8.06806 -7.28332 4.93264
rclavicle 4.47266e-014 -5.56597e-015
rhumerus -50.1753 12.0174 -95.4818
rradius 29.3794
rwrist 17.6173
rhand -4.6202 -49.7754
rfingers 7.12502
rthumb 21.1583 -78.6409
lclavicle 4.47266e-014 -5.56597e-015
lhumerus -49.449 1.36086 81.299
lradius 32.1047
lwrist -26.3604
lhand -16.0299 -42.5734
lfingers 7.12502
lthumb 10.1713 -12.8392
rfemur -26.93 27.3808 10.6365
rtibia 27.8875
rfoot -40.9944 -38.5451
rtoes 43.7186
lfemur 16.2208 -13.9862 -34.5319
ltibia 11.5273
lfoot -20.4146 6.94468
ltoes -20.0498
297
root 7.44515 15.012 39.9156 173.859 -15.2094 179.173
lowerback 1.81661 2.77431 1.52578
upperback -3.95352 3.55027 -2.27934
thorax -4.86619 1.60343 -3.41826
lowerneck 4.15426 -5.56473 -14.0353
upperneck 23.3189 -12.2995 10.4674
head 7.96512 -7.33526 4.96824
rclavicle 5.76476e-014 -1.74931e-014
rhumerus -50.3287 12.3137 -95.6857
rradius 29.4206
rwrist 18.1067
rhand -5.1259 -49.7696
rfingers 7.12502
rthumb 20.6724 -78.6887
lclavicle 5.76476e-014 -1.74931e-014
lhumerus -49.4599 1.78717 80.8539
lradius 31.9574
lwrist -27.4216
lhand -17.0283 -43.3739
lfingers 7.12502
lthumb 9.20804 -13.595
rfemur -26.2978 27.3916 10.6448
rtibia 26.3058
rfoot -40.4964 -39.9466
rtoes 42.9408
lfemur 14.7033 -13.7699 -34.0949
ltibia 14.5539
lfoot -21.5359 6.32512
ltoes -20.8463
